M48
; DRILL file {KiCad (5.1.5)-3} date 18.02.2022 14:59:33
; FORMAT={-:-/ absolute / inch / decimal}
; #@! TF.CreationDate,2022-02-18T14:59:33+07:00
; #@! TF.GenerationSoftware,Kicad,Pcbnew,(5.1.5)-3
; #@! TF.FileFunction,Plated,1,4,PTH
FMAT,2
INCH
T1C0.0120
T2C0.0197
T3C0.0315
T4C0.0394
T5C0.0512
%
G90
G05
T1
X3.5805Y-3.9428
X3.5805Y-4.3138
X3.5805Y-4.4388
X3.5805Y-4.5738
X3.5805Y-4.6538
X3.5805Y-4.7888
X3.6205Y-4.5038
X3.6805Y-4.8038
X3.6985Y-4.5658
X3.7495Y-4.5908
X3.9906Y-4.6104
X4.023Y-4.9013
X4.0455Y-4.9338
X4.0897Y-3.1805
X4.0996Y-3.0712
X4.148Y-4.7688
X4.153Y-4.4063
X4.1905Y-4.9343
X4.2155Y-4.9013
X4.2413Y-3.8675
X4.243Y-4.4063
X4.2551Y-2.8813
X4.291Y-4.4152
X4.324Y-4.0506
X4.3752Y-4.3729
X4.3791Y-4.0506
X4.3861Y-4.5474
X4.4539Y-4.0506
X4.4761Y-4.5474
X4.4977Y-4.3524
X4.509Y-4.0506
X4.5759Y-3.9935
X4.5877Y-4.3524
X4.598Y-4.5279
X4.6498Y-3.7612
X4.6498Y-3.8163
X4.6501Y-4.5984
X4.6872Y-3.8635
X4.7423Y-3.8635
X4.7817Y-3.7612
X4.7817Y-3.8163
X4.8102Y-2.8813
X4.8555Y-3.838
X4.8555Y-3.9344
X5.072Y-3.838
X5.1645Y-3.7317
X5.4624Y-3.9498
X5.505Y-4.0038
X5.5307Y-3.7395
X5.5346Y-4.086
X5.5346Y-4.2198
X5.5346Y-4.2454
X5.5346Y-4.3281
X5.5346Y-4.3537
X5.535Y-4.1613
X5.57Y-4.0309
X5.6527Y-3.9757
X5.6881Y-3.6647
X5.7551Y-3.9049
X5.7603Y-3.7707
X5.7603Y-3.8179
X5.7603Y-3.9754
X5.7603Y-4.0541
X5.7603Y-4.1801
X5.7615Y-3.7226
X5.7871Y-4.6682
X5.822Y-4.1332
X5.8448Y-4.3468
X5.8501Y-4.6682
X5.8693Y-4.3104
X5.8699Y-4.3711
X5.8811Y-3.96
X5.8811Y-4.0387
X5.8811Y-4.1175
X5.8811Y-4.1805
X5.9131Y-4.6682
X5.9441Y-3.7238
X5.9441Y-3.7708
X5.9441Y-3.8183
X5.9441Y-3.8813
X5.9441Y-4.023
X5.9441Y-4.1017
X5.9441Y-4.2277
X5.9795Y-4.0742
X5.9795Y-4.2395
X5.9874Y-3.96
X6.0504Y-4.2769
X6.0504Y-4.3006
X6.0504Y-4.3537
X6.0504Y-4.3769
X6.0504Y-4.4088
X6.0504Y-4.4324
X6.0504Y-4.4876
X6.0504Y-4.5112
X6.0582Y-3.7002
X6.0582Y-3.7474
X6.0858Y-3.7238
X6.1238Y-3.5506
X6.1238Y-3.645
X6.1553Y-3.5506
X6.1553Y-3.645
X6.2047Y-3.0517
X6.2047Y-3.0837
X6.2057Y-3.3012
X6.2065Y-3.4056
X6.2065Y-3.4725
X6.2065Y-3.562
X6.2315Y-4.6577
X6.2451Y-3.3514
X6.2451Y-3.3907
X6.2451Y-3.4872
X6.2457Y-3.536
X6.252Y-2.9134
X6.252Y-3.0837
X6.2992Y-2.9134
X6.2992Y-3.0837
X6.3465Y-2.9134
X6.3465Y-3.0837
X6.3563Y-3.315
X6.3937Y-2.9134
X6.3937Y-3.0837
X6.3968Y-3.5348
X6.4204Y-3.6096
X6.4449Y-3.6726
X6.4518Y-3.0837
X6.4547Y-3.559
X6.499Y-3.0837
X6.5189Y-3.6254
X6.5463Y-3.0837
X6.5571Y-3.185
X6.5661Y-4.3231
X6.5661Y-4.9924
X6.5819Y-3.6017
X6.5935Y-3.0837
X6.6417Y-3.0837
X6.6811Y-3.0837
X6.7106Y-3.378
X6.7106Y-3.4567
X6.7559Y-3.2303
X6.7559Y-3.4882
X6.7953Y-3.4882
X6.8061Y-3.19
X6.8189Y-3.3317
X6.8189Y-3.3789
X6.8189Y-3.4262
X6.8376Y-3.2825
X6.9007Y-4.6577
X7.0937Y-3.771
X7.0937Y-3.8183
X7.0937Y-3.8655
X7.0937Y-3.9128
X7.0937Y-3.96
X7.0937Y-4.0072
X7.0937Y-4.149
X7.0937Y-4.1962
X7.0937Y-4.2435
X7.0937Y-4.2907
X7.0937Y-4.338
X7.0937Y-4.3852
X7.0937Y-4.4324
X7.0937Y-4.4797
X7.2677Y-2.9379
X7.2787Y-3.771
X7.2787Y-3.8183
X7.2787Y-3.8655
X7.2787Y-3.9128
X7.2787Y-3.96
X7.2787Y-4.0072
X7.2787Y-4.0545
X7.2787Y-4.1017
X7.2787Y-4.149
X7.2787Y-4.1962
X7.2787Y-4.2435
X7.2787Y-4.2907
X7.2787Y-4.338
X7.2787Y-4.3852
X7.2787Y-4.4324
X7.2787Y-4.4797
X7.31Y-2.8602
X7.31Y-2.9193
X7.31Y-2.9646
X7.3155Y-3.4513
X7.3417Y-3.7986
X7.3505Y-4.7247
X7.3505Y-4.8147
X7.3693Y-3.7356
X7.3876Y-3.7078
X7.3929Y-3.8773
X7.4695Y-3.7598
X7.5055Y-4.2938
X7.5055Y-4.2438
X7.5055Y-4.3938
X7.5085Y-3.7598
X7.5267Y-3.8773
X7.5485Y-3.7988
X7.5661Y-3.9259
X7.5664Y-3.9764
X7.5664Y-4.0531
X7.5723Y-3.734
X7.5865Y-3.7988
X7.5875Y-2.8728
X7.6255Y-3.7988
X7.6325Y-4.3738
X7.6505Y-3.7313
X7.6635Y-3.7988
X7.7545Y-3.7308
X7.7815Y-3.2708
X7.8295Y-3.8078
X7.8515Y-3.7308
X7.8555Y-4.2428
X7.8555Y-4.7938
X7.8955Y-4.3438
X7.9109Y-3.8484
X7.9405Y-4.3858
X7.9405Y-4.7938
X7.9407Y-4.1968
X7.9505Y-3.8482
X7.9712Y-4.2115
X7.9755Y-2.8613
X7.9795Y-3.1569
X8.0074Y-4.1228
X8.0074Y-4.2728
X8.0074Y-4.4224
X8.0074Y-4.5728
X8.0105Y-3.1988
X8.0105Y-3.3968
X8.0105Y-3.6618
X8.0105Y-3.8308
X8.0267Y-3.338
X8.0267Y-3.3694
X8.074Y-3.338
X8.074Y-3.4403
X8.1142Y-4.1231
X8.1142Y-4.2731
X8.1142Y-4.5731
X8.1144Y-4.4227
X8.1527Y-2.8458
X8.1605Y-3.6138
X8.2255Y-3.6238
X8.2755Y-3.6138
X8.3555Y-3.6938
X8.0448Y-4.4823
X8.0448Y-4.5138
X8.0448Y-4.5453
X8.0763Y-4.4823
X8.0763Y-4.5138
X8.0763Y-4.5453
X8.0448Y-4.1823
X8.0448Y-4.2138
X8.0448Y-4.2453
X8.0763Y-4.1823
X8.0763Y-4.2138
X8.0763Y-4.2453
X6.4506Y-3.2875
X6.4506Y-3.3426
X6.4506Y-3.3977
X6.4506Y-3.4528
X6.5057Y-3.2875
X6.5057Y-3.3426
X6.5057Y-3.3977
X6.5057Y-3.4528
X6.5608Y-3.2875
X6.5608Y-3.3426
X6.5608Y-3.3977
X6.5608Y-3.4528
X6.6159Y-3.2875
X6.6159Y-3.3426
X6.6159Y-3.3977
X6.6159Y-3.4528
X8.0448Y-4.0323
X8.0448Y-4.0638
X8.0448Y-4.0953
X8.0763Y-4.0323
X8.0763Y-4.0638
X8.0763Y-4.0953
X8.0448Y-4.3323
X8.0448Y-4.3638
X8.0448Y-4.3953
X8.0763Y-4.3323
X8.0763Y-4.3638
X8.0763Y-4.3953
T2
X4.4871Y-5.0013
X4.5363Y-5.0013
X4.5855Y-5.0013
X4.0255Y-4.3138
X4.0747Y-4.3138
T3
X3.759Y-3.0702
X3.8968Y-3.0702
T4
X6.083Y-2.6488
X6.083Y-2.7354
X6.1617Y-2.6488
X6.1617Y-2.7354
X6.2405Y-2.6488
X6.2405Y-2.7354
X6.3192Y-2.6488
X6.3192Y-2.7354
X6.398Y-2.7354
X6.4767Y-2.7354
X6.5554Y-2.7354
X6.6342Y-2.7354
X6.7129Y-2.6488
X6.7129Y-2.7354
X6.7917Y-2.6488
X6.7917Y-2.7354
X6.8704Y-2.6488
X6.8704Y-2.7354
X6.9491Y-2.6488
X6.9491Y-2.7354
X8.0499Y-2.9415
X8.0499Y-3.0415
X3.4055Y-4.0638
X3.4055Y-4.1638
X3.4055Y-4.2638
X3.4055Y-4.3638
X3.4055Y-4.4638
X3.4055Y-4.5638
X3.4055Y-4.6638
X3.4055Y-4.7638
X3.5055Y-4.0638
X3.5055Y-4.1638
X3.5055Y-4.2638
X3.5055Y-4.3638
X3.5055Y-4.4638
X3.5055Y-4.5638
X3.5055Y-4.6638
X3.5055Y-4.7638
X8.3055Y-3.3638
X8.3055Y-3.4638
X8.3055Y-3.5638
X8.3055Y-3.6638
X8.3055Y-3.7638
X8.3055Y-3.8638
X8.3055Y-3.9638
X8.3055Y-4.0638
X8.3055Y-4.1638
X8.3055Y-4.2638
X8.3055Y-4.3638
X8.3055Y-4.4638
X8.3055Y-4.5638
X8.3055Y-4.6638
X8.3055Y-4.7638
X8.4055Y-3.3638
X8.4055Y-3.4638
X8.4055Y-3.5638
X8.4055Y-3.6638
X8.4055Y-3.7638
X8.4055Y-3.8638
X8.4055Y-3.9638
X8.4055Y-4.0638
X8.4055Y-4.1638
X8.4055Y-4.2638
X8.4055Y-4.3638
X8.4055Y-4.4638
X8.4055Y-4.5638
X8.4055Y-4.6638
X8.4055Y-4.7638
X3.728Y-4.9263
X3.828Y-4.9263
X3.928Y-4.9263
T5
X3.7275Y-2.6254
X3.9244Y-2.6254
X4.1212Y-2.6254
X4.3181Y-2.6254
X4.5149Y-2.6254
X4.7118Y-2.6254
X4.9086Y-2.6254
X5.1055Y-2.6254
T0
M30
