%TF.GenerationSoftware,KiCad,Pcbnew,(5.1.5)-3*%
%TF.CreationDate,2022-01-21T13:15:16+07:00*%
%TF.ProjectId,ReleaseDeviceDigitalAudio,52656c65-6173-4654-9465-766963654469,0.1*%
%TF.SameCoordinates,Original*%
%TF.FileFunction,Copper,L4,Bot*%
%TF.FilePolarity,Positive*%
%FSLAX46Y46*%
G04 Gerber Fmt 4.6, Leading zero omitted, Abs format (unit mm)*
G04 Created by KiCad (PCBNEW (5.1.5)-3) date 2022-01-21 13:15:16*
%MOMM*%
%LPD*%
G04 APERTURE LIST*
%TA.AperFunction,BGAPad,CuDef*%
%ADD10C,17.900000*%
%TD*%
%TA.AperFunction,SMDPad,CuDef*%
%ADD11R,5.700000X6.100000*%
%TD*%
%TA.AperFunction,ComponentPad*%
%ADD12C,0.609600*%
%TD*%
%TA.AperFunction,Conductor*%
%ADD13R,1.750000X2.550000*%
%TD*%
%TA.AperFunction,ComponentPad*%
%ADD14C,2.600000*%
%TD*%
%TA.AperFunction,ComponentPad*%
%ADD15R,2.600000X2.600000*%
%TD*%
%TA.AperFunction,ComponentPad*%
%ADD16C,1.600000*%
%TD*%
%TA.AperFunction,ComponentPad*%
%ADD17R,1.600000X1.600000*%
%TD*%
%TA.AperFunction,ComponentPad*%
%ADD18O,1.700000X1.700000*%
%TD*%
%TA.AperFunction,ComponentPad*%
%ADD19R,1.700000X1.700000*%
%TD*%
%TA.AperFunction,ComponentPad*%
%ADD20O,1.550000X1.550000*%
%TD*%
%TA.AperFunction,ComponentPad*%
%ADD21O,0.800000X1.300000*%
%TD*%
%TA.AperFunction,ComponentPad*%
%ADD22C,0.100000*%
%TD*%
%TA.AperFunction,ViaPad*%
%ADD23C,0.609600*%
%TD*%
%TA.AperFunction,Conductor*%
%ADD24C,0.254000*%
%TD*%
%TA.AperFunction,Conductor*%
%ADD25C,0.152400*%
%TD*%
%TA.AperFunction,Conductor*%
%ADD26C,0.406400*%
%TD*%
%TA.AperFunction,Conductor*%
%ADD27C,0.203200*%
%TD*%
G04 APERTURE END LIST*
D10*
%TO.P,BT1,2*%
%TO.N,GND*%
X166779000Y-118306500D03*
D11*
%TO.P,BT1,1*%
%TO.N,Net-(BT1-Pad1)*%
X153879000Y-118306500D03*
%TO.N,N/C*%
X179679000Y-118306500D03*
%TD*%
D12*
%TO.P,U11,11*%
%TO.N,N/C*%
X204337000Y-106230000D03*
X204337000Y-107030000D03*
X204337000Y-107830000D03*
X205137000Y-107830000D03*
X205137000Y-107030000D03*
X205137000Y-106230000D03*
D13*
%TD*%
%TO.N,N/C*%
%TO.C,U11*%
X204737000Y-107030000D03*
D12*
%TO.P,U13,11*%
%TO.N,N/C*%
X204337000Y-113850000D03*
X204337000Y-114650000D03*
X204337000Y-115450000D03*
X205137000Y-115450000D03*
X205137000Y-114650000D03*
X205137000Y-113850000D03*
D13*
%TD*%
%TO.N,N/C*%
%TO.C,U13*%
X204737000Y-114650000D03*
D12*
%TO.P,U12,11*%
%TO.N,N/C*%
X204337000Y-110040000D03*
X204337000Y-110840000D03*
X204337000Y-111640000D03*
X205137000Y-111640000D03*
X205137000Y-110840000D03*
X205137000Y-110040000D03*
D13*
%TD*%
%TO.N,N/C*%
%TO.C,U12*%
X204737000Y-110840000D03*
D12*
%TO.P,U10,11*%
%TO.N,N/C*%
X204337000Y-102420000D03*
X204337000Y-103220000D03*
X204337000Y-104020000D03*
X205137000Y-104020000D03*
X205137000Y-103220000D03*
X205137000Y-102420000D03*
D13*
%TD*%
%TO.N,N/C*%
%TO.C,U10*%
X204737000Y-103220000D03*
D12*
%TO.P,U14,57*%
%TO.N,GND*%
X168045000Y-87702000D03*
X166645000Y-87702000D03*
X165245000Y-87702000D03*
X163845000Y-87702000D03*
X163845000Y-86302000D03*
X163845000Y-84902000D03*
X163845000Y-83502000D03*
X165245000Y-83502000D03*
X166645000Y-83502000D03*
X168045000Y-83502000D03*
X168045000Y-84902000D03*
X168045000Y-86302000D03*
X166645000Y-86302000D03*
X166645000Y-84902000D03*
X165245000Y-84902000D03*
X165245000Y-86302000D03*
%TD*%
D14*
%TO.P,J5,8*%
%TO.N,/PowerSupply/IGNITION*%
X129679000Y-66684000D03*
%TO.P,J5,7*%
%TO.N,-BATT*%
X124679000Y-66684000D03*
%TO.P,J5,6*%
X119679000Y-66684000D03*
%TO.P,J5,5*%
%TO.N,+BATT*%
X114679000Y-66684000D03*
%TO.P,J5,4*%
X109679000Y-66684000D03*
%TO.P,J5,3*%
%TO.N,/PowerSupply/K1_GND*%
X104679000Y-66684000D03*
%TO.P,J5,2*%
%TO.N,+5V*%
X99679000Y-66684000D03*
D15*
%TO.P,J5,1*%
%TO.N,GND*%
X94679000Y-66684000D03*
%TD*%
D16*
%TO.P,C20,2*%
%TO.N,GND*%
X95479000Y-77984000D03*
D17*
%TO.P,C20,1*%
%TO.N,+5V*%
X98979000Y-77984000D03*
%TD*%
D18*
%TO.P,J2,3*%
%TO.N,GND*%
X94691500Y-125127500D03*
%TO.P,J2,2*%
%TO.N,/ControllerUIBoard/UPDI_DATA*%
X97231500Y-125127500D03*
D19*
%TO.P,J2,1*%
%TO.N,+5V*%
X99771500Y-125127500D03*
%TD*%
D18*
%TO.P,J8,2*%
%TO.N,Net-(J8-Pad2)*%
X204467000Y-74713500D03*
D19*
%TO.P,J8,1*%
%TO.N,Net-(J8-Pad1)*%
X204467000Y-77253500D03*
%TD*%
D18*
%TO.P,J6,30*%
%TO.N,/7SegmentDriver/5V_BL_SUPPLY*%
X210960000Y-121000000D03*
%TO.P,J6,29*%
%TO.N,Net-(J6-Pad29)*%
X213500000Y-121000000D03*
%TO.P,J6,28*%
%TO.N,GND*%
X210960000Y-118460000D03*
%TO.P,J6,27*%
%TO.N,Net-(J6-Pad27)*%
X213500000Y-118460000D03*
%TO.P,J6,26*%
%TO.N,/7SegmentDriver/CathodeDigit5*%
X210960000Y-115920000D03*
%TO.P,J6,25*%
%TO.N,Net-(J6-Pad25)*%
X213500000Y-115920000D03*
%TO.P,J6,24*%
%TO.N,/7SegmentDriver/CathodeDigit3*%
X210960000Y-113380000D03*
%TO.P,J6,23*%
%TO.N,/7SegmentDriver/CathodeDigit4*%
X213500000Y-113380000D03*
%TO.P,J6,22*%
%TO.N,/7SegmentDriver/CathodeDigit1*%
X210960000Y-110840000D03*
%TO.P,J6,21*%
%TO.N,/7SegmentDriver/CathodeDigit2*%
X213500000Y-110840000D03*
%TO.P,J6,20*%
%TO.N,/7SegmentDriver/CathodeDigitA*%
X210960000Y-108300000D03*
%TO.P,J6,19*%
%TO.N,/7SegmentDriver/CathodeDigitB*%
X213500000Y-108300000D03*
%TO.P,J6,18*%
%TO.N,/7SegmentDriver/CathodeDigit6*%
X210960000Y-105760000D03*
%TO.P,J6,17*%
%TO.N,/7SegmentDriver/CathodeDigit13*%
X213500000Y-105760000D03*
%TO.P,J6,16*%
%TO.N,/7SegmentDriver/CathodeDigit12*%
X210960000Y-103220000D03*
%TO.P,J6,15*%
%TO.N,/7SegmentDriver/CathodeDigit11*%
X213500000Y-103220000D03*
%TO.P,J6,14*%
%TO.N,/7SegmentDriver/CathodeDigit10*%
X210960000Y-100680000D03*
%TO.P,J6,13*%
%TO.N,/7SegmentDriver/CathodeDigit9*%
X213500000Y-100680000D03*
%TO.P,J6,12*%
%TO.N,/7SegmentDriver/CathodeDigit8*%
X210960000Y-98140000D03*
%TO.P,J6,11*%
%TO.N,/7SegmentDriver/CathodeDigit7*%
X213500000Y-98140000D03*
%TO.P,J6,10*%
%TO.N,/7SegmentDriver/CathodeDigit14*%
X210960000Y-95600000D03*
%TO.P,J6,9*%
%TO.N,Net-(J6-Pad9)*%
X213500000Y-95600000D03*
%TO.P,J6,8*%
%TO.N,Net-(J6-Pad8)*%
X210960000Y-93060000D03*
%TO.P,J6,7*%
%TO.N,/7SegmentDriver/AnodeSegmentC*%
X213500000Y-93060000D03*
%TO.P,J6,6*%
%TO.N,/7SegmentDriver/AnodeSegmentG*%
X210960000Y-90520000D03*
%TO.P,J6,5*%
%TO.N,/7SegmentDriver/AnodeSegmentD*%
X213500000Y-90520000D03*
%TO.P,J6,4*%
%TO.N,/7SegmentDriver/AnodeSegmentB*%
X210960000Y-87980000D03*
%TO.P,J6,3*%
%TO.N,/7SegmentDriver/AnodeSegmentA*%
X213500000Y-87980000D03*
%TO.P,J6,2*%
%TO.N,/7SegmentDriver/AnodeSegmentF*%
X210960000Y-85440000D03*
D19*
%TO.P,J6,1*%
%TO.N,/7SegmentDriver/AnodeSegmentE*%
X213500000Y-85440000D03*
%TD*%
D20*
%TO.P,J1,20*%
%TO.N,/MasterMicInN*%
X154508000Y-69479000D03*
%TO.P,J1,19*%
%TO.N,/MasterMicInP*%
X156508000Y-69479000D03*
%TO.P,J1,18*%
%TO.N,/HeadsetMicInN*%
X158508000Y-69479000D03*
%TO.P,J1,17*%
%TO.N,/HeadsetMicInP*%
X160508000Y-69479000D03*
%TO.P,J1,7*%
%TO.N,GND*%
X156508000Y-67279000D03*
%TO.P,J1,8*%
X154508000Y-67279000D03*
%TO.P,J1,9*%
%TO.N,/Audio_Master_Out_R*%
X176508000Y-69479000D03*
%TO.P,J1,10*%
%TO.N,/Audio_Master_Out_L*%
X174508000Y-69479000D03*
%TO.P,J1,11*%
%TO.N,/Audio_Handset_Out_L*%
X172508000Y-69479000D03*
%TO.P,J1,12*%
%TO.N,/Audio_Handset_Out_R*%
X170508000Y-69479000D03*
%TO.P,J1,13*%
%TO.N,GND*%
X168508000Y-69479000D03*
%TO.P,J1,14*%
%TO.N,/Line_In_L*%
X166508000Y-69479000D03*
%TO.P,J1,15*%
%TO.N,/Line_In_R*%
X164508000Y-69479000D03*
%TO.P,J1,16*%
%TO.N,GND*%
X162508000Y-69479000D03*
%TO.P,J1,6*%
X158508000Y-67279000D03*
%TO.P,J1,5*%
X160508000Y-67279000D03*
%TO.P,J1,4*%
X170508000Y-67279000D03*
%TO.P,J1,3*%
X172508000Y-67279000D03*
%TO.P,J1,1*%
X176508000Y-67279000D03*
%TO.P,J1,2*%
X174508000Y-67279000D03*
%TD*%
D21*
%TO.P,J3,2*%
%TO.N,GND*%
X103498000Y-109570000D03*
%TA.AperFunction,ComponentPad*%
D22*
%TO.P,J3,1*%
%TO.N,/ControllerUIBoard/Signal_Strength_Dial_+*%
G36*
X102467603Y-108920963D02*
G01*
X102487018Y-108923843D01*
X102506057Y-108928612D01*
X102524537Y-108935224D01*
X102542279Y-108943616D01*
X102559114Y-108953706D01*
X102574879Y-108965398D01*
X102589421Y-108978579D01*
X102602602Y-108993121D01*
X102614294Y-109008886D01*
X102624384Y-109025721D01*
X102632776Y-109043463D01*
X102639388Y-109061943D01*
X102644157Y-109080982D01*
X102647037Y-109100397D01*
X102648000Y-109120000D01*
X102648000Y-110020000D01*
X102647037Y-110039603D01*
X102644157Y-110059018D01*
X102639388Y-110078057D01*
X102632776Y-110096537D01*
X102624384Y-110114279D01*
X102614294Y-110131114D01*
X102602602Y-110146879D01*
X102589421Y-110161421D01*
X102574879Y-110174602D01*
X102559114Y-110186294D01*
X102542279Y-110196384D01*
X102524537Y-110204776D01*
X102506057Y-110211388D01*
X102487018Y-110216157D01*
X102467603Y-110219037D01*
X102448000Y-110220000D01*
X102048000Y-110220000D01*
X102028397Y-110219037D01*
X102008982Y-110216157D01*
X101989943Y-110211388D01*
X101971463Y-110204776D01*
X101953721Y-110196384D01*
X101936886Y-110186294D01*
X101921121Y-110174602D01*
X101906579Y-110161421D01*
X101893398Y-110146879D01*
X101881706Y-110131114D01*
X101871616Y-110114279D01*
X101863224Y-110096537D01*
X101856612Y-110078057D01*
X101851843Y-110059018D01*
X101848963Y-110039603D01*
X101848000Y-110020000D01*
X101848000Y-109120000D01*
X101848963Y-109100397D01*
X101851843Y-109080982D01*
X101856612Y-109061943D01*
X101863224Y-109043463D01*
X101871616Y-109025721D01*
X101881706Y-109008886D01*
X101893398Y-108993121D01*
X101906579Y-108978579D01*
X101921121Y-108965398D01*
X101936886Y-108953706D01*
X101953721Y-108943616D01*
X101971463Y-108935224D01*
X101989943Y-108928612D01*
X102008982Y-108923843D01*
X102028397Y-108920963D01*
X102048000Y-108920000D01*
X102448000Y-108920000D01*
X102467603Y-108920963D01*
G37*
%TD.AperFunction*%
%TD*%
D21*
%TO.P,J7,3*%
%TO.N,/ControllerUIBoard/KeySwitchA*%
X113972000Y-127032500D03*
%TO.P,J7,2*%
%TO.N,/ControllerUIBoard/KeySwitchB*%
X115222000Y-127032500D03*
%TA.AperFunction,ComponentPad*%
D22*
%TO.P,J7,1*%
%TO.N,GND*%
G36*
X116691603Y-126383463D02*
G01*
X116711018Y-126386343D01*
X116730057Y-126391112D01*
X116748537Y-126397724D01*
X116766279Y-126406116D01*
X116783114Y-126416206D01*
X116798879Y-126427898D01*
X116813421Y-126441079D01*
X116826602Y-126455621D01*
X116838294Y-126471386D01*
X116848384Y-126488221D01*
X116856776Y-126505963D01*
X116863388Y-126524443D01*
X116868157Y-126543482D01*
X116871037Y-126562897D01*
X116872000Y-126582500D01*
X116872000Y-127482500D01*
X116871037Y-127502103D01*
X116868157Y-127521518D01*
X116863388Y-127540557D01*
X116856776Y-127559037D01*
X116848384Y-127576779D01*
X116838294Y-127593614D01*
X116826602Y-127609379D01*
X116813421Y-127623921D01*
X116798879Y-127637102D01*
X116783114Y-127648794D01*
X116766279Y-127658884D01*
X116748537Y-127667276D01*
X116730057Y-127673888D01*
X116711018Y-127678657D01*
X116691603Y-127681537D01*
X116672000Y-127682500D01*
X116272000Y-127682500D01*
X116252397Y-127681537D01*
X116232982Y-127678657D01*
X116213943Y-127673888D01*
X116195463Y-127667276D01*
X116177721Y-127658884D01*
X116160886Y-127648794D01*
X116145121Y-127637102D01*
X116130579Y-127623921D01*
X116117398Y-127609379D01*
X116105706Y-127593614D01*
X116095616Y-127576779D01*
X116087224Y-127559037D01*
X116080612Y-127540557D01*
X116075843Y-127521518D01*
X116072963Y-127502103D01*
X116072000Y-127482500D01*
X116072000Y-126582500D01*
X116072963Y-126562897D01*
X116075843Y-126543482D01*
X116080612Y-126524443D01*
X116087224Y-126505963D01*
X116095616Y-126488221D01*
X116105706Y-126471386D01*
X116117398Y-126455621D01*
X116130579Y-126441079D01*
X116145121Y-126427898D01*
X116160886Y-126416206D01*
X116177721Y-126406116D01*
X116195463Y-126397724D01*
X116213943Y-126391112D01*
X116232982Y-126386343D01*
X116252397Y-126383463D01*
X116272000Y-126382500D01*
X116672000Y-126382500D01*
X116691603Y-126383463D01*
G37*
%TD.AperFunction*%
%TD*%
D18*
%TO.P,J4,16*%
%TO.N,/ControllerUIBoard/DataEncoderDataOutE*%
X86500000Y-121000000D03*
%TO.P,J4,15*%
%TO.N,/ControllerUIBoard/DataEncoderDataOutD*%
X89040000Y-121000000D03*
%TO.P,J4,14*%
%TO.N,/ControllerUIBoard/LED_ON*%
X86500000Y-118460000D03*
%TO.P,J4,13*%
%TO.N,+5V*%
X89040000Y-118460000D03*
%TO.P,J4,12*%
%TO.N,/ControllerUIBoard/DataEncoderDataOutA*%
X86500000Y-115920000D03*
%TO.P,J4,11*%
%TO.N,+5V*%
X89040000Y-115920000D03*
%TO.P,J4,10*%
%TO.N,/ControllerUIBoard/DataEncoderDataOutC*%
X86500000Y-113380000D03*
%TO.P,J4,9*%
%TO.N,/ControllerUIBoard/DataEncoderDataOutB*%
X89040000Y-113380000D03*
%TO.P,J4,8*%
%TO.N,/ControllerUIBoard/DataEncoderDataAvailable*%
X86500000Y-110840000D03*
%TO.P,J4,7*%
%TO.N,/ControllerUIBoard/DataEncoderOutputEnable*%
X89040000Y-110840000D03*
%TO.P,J4,6*%
%TO.N,Net-(J4-Pad6)*%
X86500000Y-108300000D03*
%TO.P,J4,5*%
%TO.N,/ControllerUIBoard/ButtonA2GND*%
X89040000Y-108300000D03*
%TO.P,J4,4*%
%TO.N,/ControllerUIBoard/LED_GN*%
X86500000Y-105760000D03*
%TO.P,J4,3*%
%TO.N,/ControllerUIBoard/LED_RD*%
X89040000Y-105760000D03*
%TO.P,J4,2*%
%TO.N,/ControllerUIBoard/LDR*%
X86500000Y-103220000D03*
D19*
%TO.P,J4,1*%
%TO.N,/ControllerUIBoard/LED_YL*%
X89040000Y-103220000D03*
%TD*%
D23*
%TO.N,+5V*%
X206101218Y-104726319D03*
X206101218Y-108536319D03*
X206104997Y-112337598D03*
X206101218Y-116156319D03*
X200937000Y-97750000D03*
X199530000Y-121762000D03*
X201689000Y-121762000D03*
X186703000Y-122293000D03*
X192178000Y-99705000D03*
X90945000Y-109570000D03*
X107772486Y-111919500D03*
X102184500Y-124492500D03*
X102756000Y-125318000D03*
X113692600Y-115504600D03*
X140579000Y-109934000D03*
X140579000Y-110584000D03*
X95237612Y-116605800D03*
X131179000Y-94784000D03*
%TO.N,Net-(BT1-Pad1)*%
X140579000Y-103784000D03*
%TO.N,+3V3*%
X192337280Y-94842520D03*
X114241100Y-110551600D03*
X153679000Y-110584000D03*
X153679000Y-111174000D03*
X151879000Y-107684000D03*
X144479000Y-93084000D03*
X139826000Y-101695500D03*
X140588000Y-105696000D03*
X173200000Y-87025000D03*
X157645000Y-90475499D03*
X165579000Y-92084000D03*
X151879000Y-103484000D03*
X163700000Y-93284000D03*
X149079000Y-109484000D03*
%TO.N,/BluetoothModule/SYS_PWR*%
X192697400Y-96489000D03*
X203467000Y-86278200D03*
X203467000Y-93009200D03*
%TO.N,/BluetoothModule/VDD_IO*%
X193688000Y-96489000D03*
X198869600Y-96717600D03*
X203466996Y-81249000D03*
%TO.N,+1V8*%
X153679000Y-111984000D03*
X153679000Y-112584000D03*
X173675000Y-83375000D03*
X157645000Y-88202000D03*
X157645000Y-86502000D03*
%TO.N,/AudioMAX98089/MAX_MICBIAS*%
X162400000Y-74000000D03*
X160000000Y-74000000D03*
X157600000Y-77512197D03*
%TO.N,-BATT*%
X108079000Y-73184000D03*
X122179000Y-73184000D03*
%TO.N,/ControllerUIBoard/Signal_Strength_Dial_+*%
X107074000Y-124492490D03*
%TO.N,/7SegmentDriver/CathodeDigit1Signal*%
X201689000Y-111398810D03*
X200545994Y-110332000D03*
%TO.N,/7SegmentDriver/CathodeDigit13Signal*%
X190640000Y-111602000D03*
X193865799Y-111094000D03*
%TO.N,/7SegmentDriver/CathodeDigit12Signal*%
X190640000Y-107792000D03*
X201692741Y-106598190D03*
%TO.N,/7SegmentDriver/CathodeDigit11Signal*%
X202469420Y-106971190D03*
X190639994Y-109062000D03*
%TO.N,/BluetoothModule/BM83_MFB*%
X194323000Y-94774500D03*
X150979000Y-102184000D03*
X153879000Y-93984000D03*
X187645000Y-94177600D03*
%TO.N,/RPiCM4/GPIO10*%
X162479000Y-89784000D03*
X163079000Y-91684000D03*
%TO.N,/7SegmentDriver/BrightnessPWM*%
X118113396Y-116799396D03*
X105359500Y-121126972D03*
%TO.N,/RPiCM4/I2C1_SDA*%
X156345000Y-90184000D03*
X156345000Y-92584000D03*
%TO.N,/RPiCM4/I2C0_SDA*%
X149095557Y-111026756D03*
X138744000Y-100323900D03*
%TO.N,/RPiCM4/I2C1_SCL*%
X155543789Y-90184000D03*
X155545000Y-92584000D03*
%TO.N,/RPiCM4/I2C0_SCL*%
X148458650Y-110408420D03*
X141479000Y-102384000D03*
%TO.N,/RPiCM4/UART3_RX*%
X152079004Y-100584000D03*
X153879000Y-95184000D03*
%TO.N,/RPiCM4/UART3_TX*%
X150979000Y-104184000D03*
X154579000Y-94584000D03*
%TO.N,/AudioMAX98089/I2S1_SD_IN*%
X185675000Y-74150000D03*
X185675000Y-75300000D03*
%TO.N,/AudioMAX98089/I2S1_SD_OUT*%
X185675000Y-72650000D03*
X184600000Y-74622829D03*
%TO.N,/7SegmentDriver/AnodeSegmentC*%
X210198000Y-91790000D03*
X208928000Y-92044008D03*
%TO.N,/7SegmentDriver/AnodeSegmentG*%
X207277000Y-91790000D03*
%TO.N,/7SegmentDriver/AnodeSegmentE*%
X212230000Y-93822000D03*
%TO.N,Net-(C76-Pad1)*%
X196964600Y-94761800D03*
X199428400Y-94761800D03*
%TO.N,GND*%
X203387000Y-104720010D03*
X203387000Y-108530000D03*
X203387000Y-112330000D03*
X203387000Y-116150000D03*
X192187000Y-102950000D03*
X192187000Y-101000000D03*
X201943000Y-97744000D03*
X186703000Y-120007000D03*
X199530000Y-107766600D03*
X185814000Y-87662500D03*
X202578000Y-72676500D03*
X190716200Y-95498400D03*
X189725600Y-95498400D03*
X194653200Y-96489000D03*
X191732200Y-96489000D03*
X203467000Y-97301800D03*
X197650400Y-83077800D03*
X192722800Y-72968600D03*
X90945000Y-112745000D03*
X91961000Y-114396000D03*
X90945000Y-116174000D03*
X90945000Y-118206000D03*
X90945000Y-121635000D03*
X93485000Y-122016000D03*
X105486500Y-111919500D03*
X101362100Y-117104100D03*
X116788800Y-115008300D03*
X111129800Y-111071900D03*
X111406600Y-115504600D03*
X116527100Y-110551600D03*
X106439000Y-125330710D03*
X90944988Y-100146600D03*
X93942200Y-115970800D03*
X146343287Y-94553392D03*
X146312510Y-95774885D03*
X146312510Y-96974886D03*
X146312527Y-100974888D03*
X146312527Y-102974888D03*
X146312527Y-106174888D03*
X150979000Y-94584000D03*
X150979000Y-95778023D03*
X150979000Y-96984000D03*
X180179000Y-95784000D03*
X180179000Y-96984000D03*
X180179000Y-98184000D03*
X180179000Y-99384000D03*
X180179000Y-100584000D03*
X180179000Y-101784000D03*
X180179000Y-105384000D03*
X180179000Y-106584000D03*
X180179000Y-107784000D03*
X180179000Y-108984000D03*
X180179000Y-110184000D03*
X180179000Y-111384000D03*
X180179000Y-112584000D03*
X180179000Y-113784000D03*
X184879000Y-113784000D03*
X184879000Y-112584000D03*
X184879000Y-111384000D03*
X184879000Y-110184000D03*
X184879000Y-108984000D03*
X184879000Y-106584000D03*
X184879000Y-107784000D03*
X184879000Y-105384000D03*
X184879000Y-104184000D03*
X184879000Y-102984000D03*
X184879000Y-101784000D03*
X184879000Y-100584000D03*
X184879000Y-99384000D03*
X184879000Y-98184000D03*
X184879000Y-95784000D03*
X184879000Y-96984000D03*
X140579000Y-107834000D03*
X140579000Y-107184000D03*
X147879000Y-104984000D03*
X153679000Y-113984000D03*
X153679000Y-114584000D03*
X153679000Y-108634000D03*
X153679000Y-109234000D03*
X146991500Y-118571500D03*
X148591500Y-118571500D03*
X150191500Y-118571500D03*
X149379000Y-104584000D03*
X150979000Y-107384000D03*
X149379000Y-106184000D03*
X149379000Y-100584000D03*
X150979000Y-98584000D03*
X143579000Y-100984000D03*
X140479000Y-94984000D03*
X146179000Y-99184000D03*
X149379000Y-102584000D03*
X207079000Y-72284000D03*
X123329000Y-97484000D03*
X123329000Y-99934000D03*
X128829000Y-97484000D03*
X103879000Y-80784000D03*
X108991000Y-112147000D03*
X107729000Y-98234000D03*
X109829000Y-102884000D03*
X111229000Y-102884000D03*
X113129000Y-102884000D03*
X114529000Y-102884000D03*
X116229000Y-101434000D03*
X120454000Y-98134000D03*
X119054000Y-98134000D03*
X121454000Y-95534000D03*
X121454000Y-96934000D03*
X118104000Y-95534000D03*
X118104000Y-96934000D03*
X104129000Y-78008986D03*
X162400000Y-78325000D03*
X161200000Y-78325000D03*
X160000000Y-78325000D03*
X158800000Y-78325000D03*
X157600000Y-78325000D03*
X161200000Y-74000000D03*
X158800000Y-74000000D03*
X167475000Y-78325000D03*
X166275000Y-78325000D03*
X165075000Y-78325000D03*
X163875000Y-78325000D03*
X168700000Y-78325000D03*
X169700000Y-78325000D03*
X173200000Y-84625000D03*
X173200000Y-85825000D03*
X172600000Y-88600000D03*
X171600000Y-88600000D03*
X172875000Y-81025000D03*
X171600000Y-82050000D03*
X170450000Y-87800000D03*
X170450000Y-85800000D03*
X166550000Y-80900000D03*
X161450000Y-84200000D03*
X158625000Y-85125000D03*
X157625000Y-83850000D03*
X158625000Y-86125000D03*
X158625000Y-88575000D03*
X158639751Y-89814375D03*
X163950000Y-90399790D03*
X167179008Y-91484000D03*
X158279000Y-118306500D03*
X175279000Y-118306500D03*
X166779000Y-109806500D03*
X166779000Y-126806500D03*
%TD*%
D24*
%TO.N,Net-(BT1-Pad1)*%
X153356500Y-117784000D02*
X140279000Y-117784000D01*
X153879000Y-118306500D02*
X153356500Y-117784000D01*
X140274201Y-104088799D02*
X140579000Y-103784000D01*
X140279000Y-117784000D02*
X139974201Y-117479201D01*
X139974201Y-104388799D02*
X140274201Y-104088799D01*
X139974201Y-117479201D02*
X139974201Y-104388799D01*
%TO.N,+1V8*%
X154279000Y-111984000D02*
X153679000Y-111984000D01*
X154314001Y-111948999D02*
X154279000Y-111984000D01*
X157645000Y-87650000D02*
X157379000Y-87384000D01*
X157645000Y-88202000D02*
X157645000Y-87650000D01*
X157645000Y-87118000D02*
X157645000Y-86502000D01*
X157009999Y-93953001D02*
X157009999Y-87753001D01*
X157279000Y-87484000D02*
X157645000Y-87118000D01*
X157009999Y-87753001D02*
X157279000Y-87484000D01*
X174179000Y-83879000D02*
X173675000Y-83375000D01*
X174179000Y-92984000D02*
X174179000Y-83879000D01*
X157009999Y-93953001D02*
X173209999Y-93953001D01*
X173209999Y-93953001D02*
X174179000Y-92984000D01*
X154314001Y-112348999D02*
X154314001Y-111948999D01*
X153679000Y-112584000D02*
X154079000Y-112584000D01*
X154079000Y-112584000D02*
X154314001Y-112348999D01*
X154314001Y-96639000D02*
X157000000Y-93953001D01*
X154314001Y-111948999D02*
X154314001Y-96639000D01*
D25*
%TO.N,/AudioMAX98089/MAX_MICBIAS*%
X162050000Y-74000000D02*
X162400000Y-74000000D01*
X161200000Y-74850000D02*
X162050000Y-74000000D01*
X160350000Y-74000000D02*
X161200000Y-74850000D01*
X160000000Y-74000000D02*
X160350000Y-74000000D01*
X161200000Y-74850000D02*
X161200000Y-77175000D01*
X160862803Y-77512197D02*
X157600000Y-77512197D01*
X161200000Y-77175000D02*
X160862803Y-77512197D01*
D26*
%TO.N,-BATT*%
X121847948Y-73184000D02*
X108079000Y-73184000D01*
X122179000Y-73184000D02*
X121847948Y-73184000D01*
D25*
%TO.N,/ControllerUIBoard/Signal_Strength_Dial_+*%
X106819990Y-124746500D02*
X107074000Y-124492490D01*
X103327500Y-124746500D02*
X106819990Y-124746500D01*
X102256200Y-123675200D02*
X103327500Y-124746500D01*
X102248000Y-109570000D02*
X102256200Y-109578200D01*
X102256200Y-109578200D02*
X102256200Y-123675200D01*
D27*
%TO.N,/7SegmentDriver/CathodeDigit1Signal*%
X201689000Y-111398810D02*
X200622190Y-110332000D01*
X200622190Y-110332000D02*
X200545994Y-110332000D01*
%TO.N,/7SegmentDriver/CathodeDigit13Signal*%
X193357799Y-111602000D02*
X193865799Y-111094000D01*
X190640000Y-111602000D02*
X193357799Y-111602000D01*
%TO.N,/7SegmentDriver/CathodeDigit12Signal*%
X201514931Y-106776000D02*
X201692741Y-106598190D01*
X192418000Y-106776000D02*
X201514931Y-106776000D01*
X190640000Y-107792000D02*
X191402000Y-107792000D01*
X191402000Y-107792000D02*
X192418000Y-106776000D01*
%TO.N,/7SegmentDriver/CathodeDigit11Signal*%
X192544994Y-107157000D02*
X190639994Y-109062000D01*
X202469420Y-106971190D02*
X202283610Y-107157000D01*
X202283610Y-107157000D02*
X192544994Y-107157000D01*
D25*
%TO.N,/BluetoothModule/BM83_MFB*%
X152879000Y-93984000D02*
X153879000Y-93984000D01*
X151569378Y-95293622D02*
X152879000Y-93984000D01*
X151569378Y-98893622D02*
X151569378Y-95293622D01*
X150979000Y-102184000D02*
X150979000Y-99484000D01*
X150979000Y-99484000D02*
X151569378Y-98893622D01*
X192720600Y-94177600D02*
X187645000Y-94177600D01*
X194323000Y-94774500D02*
X193317500Y-94774500D01*
X193317500Y-94774500D02*
X192720600Y-94177600D01*
%TO.N,/RPiCM4/GPIO10*%
X162479000Y-89784000D02*
X163079000Y-90384000D01*
X163079000Y-90384000D02*
X163079000Y-91684000D01*
%TO.N,/7SegmentDriver/BrightnessPWM*%
X105359500Y-117571000D02*
X105359500Y-121126972D01*
X105804000Y-117126500D02*
X105359500Y-117571000D01*
X118113396Y-116799396D02*
X117786292Y-117126500D01*
X117786292Y-117126500D02*
X105804000Y-117126500D01*
%TO.N,/RPiCM4/I2C1_SDA*%
X156345000Y-90184000D02*
X156345000Y-92584000D01*
%TO.N,/RPiCM4/I2C0_SDA*%
X138744000Y-100323900D02*
X138744000Y-101649000D01*
X141174189Y-108010256D02*
X142052744Y-108888811D01*
X138744000Y-101649000D02*
X139374190Y-102279190D01*
X142052744Y-108888811D02*
X146507975Y-108888811D01*
X147879000Y-110684000D02*
X148221756Y-111026756D01*
X146507975Y-108888811D02*
X147879000Y-110259836D01*
X140474190Y-102279190D02*
X141174189Y-102979189D01*
X147879000Y-110259836D02*
X147879000Y-110684000D01*
X148664505Y-111026756D02*
X149095557Y-111026756D01*
X141174189Y-102979189D02*
X141174189Y-108010256D01*
X139374190Y-102279190D02*
X140474190Y-102279190D01*
X148221756Y-111026756D02*
X148664505Y-111026756D01*
%TO.N,/RPiCM4/I2C1_SCL*%
X155543789Y-92582789D02*
X155545000Y-92584000D01*
X155543789Y-90184000D02*
X155543789Y-92582789D01*
%TO.N,/RPiCM4/I2C0_SCL*%
X146634230Y-108584000D02*
X148458650Y-110408420D01*
X141479000Y-102384000D02*
X141479000Y-107884000D01*
X142179000Y-108584000D02*
X146634230Y-108584000D01*
X141479000Y-107884000D02*
X142179000Y-108584000D01*
%TO.N,/RPiCM4/UART3_RX*%
X152579000Y-95184000D02*
X153879000Y-95184000D01*
X152179000Y-95584000D02*
X152579000Y-95184000D01*
X152079004Y-100584000D02*
X152179000Y-100484004D01*
X152179000Y-100484004D02*
X152179000Y-95584000D01*
%TO.N,/RPiCM4/UART3_TX*%
X150979000Y-104184000D02*
X150979000Y-102984000D01*
X151874189Y-99057744D02*
X151874189Y-95419877D01*
X151545595Y-102417405D02*
X151545595Y-99386338D01*
X151545595Y-99386338D02*
X151874189Y-99057744D01*
X150979000Y-102984000D02*
X151545595Y-102417405D01*
X151874189Y-95419877D02*
X152710066Y-94584000D01*
X152710066Y-94584000D02*
X154579000Y-94584000D01*
%TO.N,/AudioMAX98089/I2S1_SD_IN*%
X185675000Y-74150000D02*
X185675000Y-75300000D01*
%TO.N,/AudioMAX98089/I2S1_SD_OUT*%
X185675000Y-72700000D02*
X185675000Y-72650000D01*
X185125000Y-74475000D02*
X184977171Y-74622829D01*
X185125000Y-72850000D02*
X185125000Y-74475000D01*
X185675000Y-72650000D02*
X185325000Y-72650000D01*
X184977171Y-74622829D02*
X184600000Y-74622829D01*
X185325000Y-72650000D02*
X185125000Y-72850000D01*
D24*
%TO.N,/7SegmentDriver/AnodeSegmentC*%
X209182008Y-91790000D02*
X208928000Y-92044008D01*
X210198000Y-91790000D02*
X209182008Y-91790000D01*
%TO.N,/7SegmentDriver/AnodeSegmentG*%
X207277000Y-91155000D02*
X207277000Y-91790000D01*
X210960000Y-90520000D02*
X207912000Y-90520000D01*
X207912000Y-90520000D02*
X207277000Y-91155000D01*
%TO.N,/7SegmentDriver/AnodeSegmentE*%
X213500000Y-85440000D02*
X212230000Y-86710000D01*
X212230000Y-86710000D02*
X212230000Y-93822000D01*
D25*
%TO.N,Net-(C76-Pad1)*%
X199428400Y-94761800D02*
X196964600Y-94761800D01*
%TO.N,GND*%
X162231052Y-78325000D02*
X162306052Y-78250000D01*
%TD*%
M02*
