%TF.GenerationSoftware,KiCad,Pcbnew,(5.1.5)-3*%
%TF.CreationDate,2022-02-18T14:59:27+07:00*%
%TF.ProjectId,ReleaseDeviceDigitalAudio,52656c65-6173-4654-9465-766963654469,0.1*%
%TF.SameCoordinates,Original*%
%TF.FileFunction,Soldermask,Bot*%
%TF.FilePolarity,Negative*%
%FSLAX46Y46*%
G04 Gerber Fmt 4.6, Leading zero omitted, Abs format (unit mm)*
G04 Created by KiCad (PCBNEW (5.1.5)-3) date 2022-02-18 14:59:27*
%MOMM*%
%LPD*%
G04 APERTURE LIST*
%ADD10C,17.900000*%
%ADD11R,5.700000X6.100000*%
%ADD12C,2.600000*%
%ADD13R,2.600000X2.600000*%
%ADD14C,1.600000*%
%ADD15R,1.600000X1.600000*%
%ADD16O,1.700000X1.700000*%
%ADD17R,1.700000X1.700000*%
%ADD18C,6.100000*%
%ADD19O,1.550000X1.550000*%
%ADD20C,2.150000*%
%ADD21O,0.800000X1.300000*%
%ADD22C,0.100000*%
%ADD23C,2.500000*%
%ADD24C,3.200000*%
G04 APERTURE END LIST*
D10*
%TO.C,BT1*%
X166779000Y-118306500D03*
D11*
X153879000Y-118306500D03*
X179679000Y-118306500D03*
%TD*%
D12*
%TO.C,J5*%
X129679000Y-66684000D03*
X124679000Y-66684000D03*
X119679000Y-66684000D03*
X114679000Y-66684000D03*
X109679000Y-66684000D03*
X104679000Y-66684000D03*
X99679000Y-66684000D03*
D13*
X94679000Y-66684000D03*
%TD*%
D14*
%TO.C,C20*%
X95479000Y-77984000D03*
D15*
X98979000Y-77984000D03*
%TD*%
D16*
%TO.C,J2*%
X94691500Y-125127500D03*
X97231500Y-125127500D03*
D17*
X99771500Y-125127500D03*
%TD*%
D18*
%TO.C,U7*%
X182079000Y-77884000D03*
X149079000Y-125884000D03*
X182079000Y-125884000D03*
X149079000Y-77884000D03*
%TD*%
D16*
%TO.C,J8*%
X204467000Y-74713500D03*
D17*
X204467000Y-77253500D03*
%TD*%
D16*
%TO.C,J6*%
X210960000Y-121000000D03*
X213500000Y-121000000D03*
X210960000Y-118460000D03*
X213500000Y-118460000D03*
X210960000Y-115920000D03*
X213500000Y-115920000D03*
X210960000Y-113380000D03*
X213500000Y-113380000D03*
X210960000Y-110840000D03*
X213500000Y-110840000D03*
X210960000Y-108300000D03*
X213500000Y-108300000D03*
X210960000Y-105760000D03*
X213500000Y-105760000D03*
X210960000Y-103220000D03*
X213500000Y-103220000D03*
X210960000Y-100680000D03*
X213500000Y-100680000D03*
X210960000Y-98140000D03*
X213500000Y-98140000D03*
X210960000Y-95600000D03*
X213500000Y-95600000D03*
X210960000Y-93060000D03*
X213500000Y-93060000D03*
X210960000Y-90520000D03*
X213500000Y-90520000D03*
X210960000Y-87980000D03*
X213500000Y-87980000D03*
X210960000Y-85440000D03*
D17*
X213500000Y-85440000D03*
%TD*%
D19*
%TO.C,J1*%
X154508000Y-69479000D03*
X156508000Y-69479000D03*
X158508000Y-69479000D03*
X160508000Y-69479000D03*
D20*
X151658000Y-72029000D03*
X179358000Y-72029000D03*
D19*
X156508000Y-67279000D03*
X154508000Y-67279000D03*
X176508000Y-69479000D03*
X174508000Y-69479000D03*
X172508000Y-69479000D03*
X170508000Y-69479000D03*
X168508000Y-69479000D03*
X166508000Y-69479000D03*
X164508000Y-69479000D03*
X162508000Y-69479000D03*
X158508000Y-67279000D03*
X160508000Y-67279000D03*
X170508000Y-67279000D03*
X172508000Y-67279000D03*
X176508000Y-67279000D03*
X174508000Y-67279000D03*
%TD*%
D21*
%TO.C,J3*%
X103498000Y-109570000D03*
D22*
G36*
X102467603Y-108920963D02*
G01*
X102487018Y-108923843D01*
X102506057Y-108928612D01*
X102524537Y-108935224D01*
X102542279Y-108943616D01*
X102559114Y-108953706D01*
X102574879Y-108965398D01*
X102589421Y-108978579D01*
X102602602Y-108993121D01*
X102614294Y-109008886D01*
X102624384Y-109025721D01*
X102632776Y-109043463D01*
X102639388Y-109061943D01*
X102644157Y-109080982D01*
X102647037Y-109100397D01*
X102648000Y-109120000D01*
X102648000Y-110020000D01*
X102647037Y-110039603D01*
X102644157Y-110059018D01*
X102639388Y-110078057D01*
X102632776Y-110096537D01*
X102624384Y-110114279D01*
X102614294Y-110131114D01*
X102602602Y-110146879D01*
X102589421Y-110161421D01*
X102574879Y-110174602D01*
X102559114Y-110186294D01*
X102542279Y-110196384D01*
X102524537Y-110204776D01*
X102506057Y-110211388D01*
X102487018Y-110216157D01*
X102467603Y-110219037D01*
X102448000Y-110220000D01*
X102048000Y-110220000D01*
X102028397Y-110219037D01*
X102008982Y-110216157D01*
X101989943Y-110211388D01*
X101971463Y-110204776D01*
X101953721Y-110196384D01*
X101936886Y-110186294D01*
X101921121Y-110174602D01*
X101906579Y-110161421D01*
X101893398Y-110146879D01*
X101881706Y-110131114D01*
X101871616Y-110114279D01*
X101863224Y-110096537D01*
X101856612Y-110078057D01*
X101851843Y-110059018D01*
X101848963Y-110039603D01*
X101848000Y-110020000D01*
X101848000Y-109120000D01*
X101848963Y-109100397D01*
X101851843Y-109080982D01*
X101856612Y-109061943D01*
X101863224Y-109043463D01*
X101871616Y-109025721D01*
X101881706Y-109008886D01*
X101893398Y-108993121D01*
X101906579Y-108978579D01*
X101921121Y-108965398D01*
X101936886Y-108953706D01*
X101953721Y-108943616D01*
X101971463Y-108935224D01*
X101989943Y-108928612D01*
X102008982Y-108923843D01*
X102028397Y-108920963D01*
X102048000Y-108920000D01*
X102448000Y-108920000D01*
X102467603Y-108920963D01*
G37*
%TD*%
D21*
%TO.C,J7*%
X113972000Y-127032500D03*
X115222000Y-127032500D03*
D22*
G36*
X116691603Y-126383463D02*
G01*
X116711018Y-126386343D01*
X116730057Y-126391112D01*
X116748537Y-126397724D01*
X116766279Y-126406116D01*
X116783114Y-126416206D01*
X116798879Y-126427898D01*
X116813421Y-126441079D01*
X116826602Y-126455621D01*
X116838294Y-126471386D01*
X116848384Y-126488221D01*
X116856776Y-126505963D01*
X116863388Y-126524443D01*
X116868157Y-126543482D01*
X116871037Y-126562897D01*
X116872000Y-126582500D01*
X116872000Y-127482500D01*
X116871037Y-127502103D01*
X116868157Y-127521518D01*
X116863388Y-127540557D01*
X116856776Y-127559037D01*
X116848384Y-127576779D01*
X116838294Y-127593614D01*
X116826602Y-127609379D01*
X116813421Y-127623921D01*
X116798879Y-127637102D01*
X116783114Y-127648794D01*
X116766279Y-127658884D01*
X116748537Y-127667276D01*
X116730057Y-127673888D01*
X116711018Y-127678657D01*
X116691603Y-127681537D01*
X116672000Y-127682500D01*
X116272000Y-127682500D01*
X116252397Y-127681537D01*
X116232982Y-127678657D01*
X116213943Y-127673888D01*
X116195463Y-127667276D01*
X116177721Y-127658884D01*
X116160886Y-127648794D01*
X116145121Y-127637102D01*
X116130579Y-127623921D01*
X116117398Y-127609379D01*
X116105706Y-127593614D01*
X116095616Y-127576779D01*
X116087224Y-127559037D01*
X116080612Y-127540557D01*
X116075843Y-127521518D01*
X116072963Y-127502103D01*
X116072000Y-127482500D01*
X116072000Y-126582500D01*
X116072963Y-126562897D01*
X116075843Y-126543482D01*
X116080612Y-126524443D01*
X116087224Y-126505963D01*
X116095616Y-126488221D01*
X116105706Y-126471386D01*
X116117398Y-126455621D01*
X116130579Y-126441079D01*
X116145121Y-126427898D01*
X116160886Y-126416206D01*
X116177721Y-126406116D01*
X116195463Y-126397724D01*
X116213943Y-126391112D01*
X116232982Y-126386343D01*
X116252397Y-126383463D01*
X116272000Y-126382500D01*
X116672000Y-126382500D01*
X116691603Y-126383463D01*
G37*
%TD*%
D23*
%TO.C,H6*%
X125000000Y-127500000D03*
%TD*%
%TO.C,H5*%
X135000000Y-117500000D03*
%TD*%
D16*
%TO.C,J4*%
X86500000Y-121000000D03*
X89040000Y-121000000D03*
X86500000Y-118460000D03*
X89040000Y-118460000D03*
X86500000Y-115920000D03*
X89040000Y-115920000D03*
X86500000Y-113380000D03*
X89040000Y-113380000D03*
X86500000Y-110840000D03*
X89040000Y-110840000D03*
X86500000Y-108300000D03*
X89040000Y-108300000D03*
X86500000Y-105760000D03*
X89040000Y-105760000D03*
X86500000Y-103220000D03*
D17*
X89040000Y-103220000D03*
%TD*%
D24*
%TO.C,H4*%
X213000000Y-79500000D03*
%TD*%
%TO.C,H3*%
X213000000Y-126500000D03*
%TD*%
%TO.C,H2*%
X87000000Y-79500000D03*
%TD*%
%TO.C,H1*%
X87000000Y-126500000D03*
%TD*%
M02*
