%TF.GenerationSoftware,KiCad,Pcbnew,(5.1.5)-3*%
%TF.CreationDate,2022-02-18T14:59:27+07:00*%
%TF.ProjectId,ReleaseDeviceDigitalAudio,52656c65-6173-4654-9465-766963654469,0.1*%
%TF.SameCoordinates,Original*%
%TF.FileFunction,Legend,Bot*%
%TF.FilePolarity,Positive*%
%FSLAX46Y46*%
G04 Gerber Fmt 4.6, Leading zero omitted, Abs format (unit mm)*
G04 Created by KiCad (PCBNEW (5.1.5)-3) date 2022-02-18 14:59:27*
%MOMM*%
%LPD*%
G04 APERTURE LIST*
%ADD10C,0.120000*%
G04 APERTURE END LIST*
D10*
%TO.C,J5*%
X96859000Y-66684000D02*
G75*
G03X96859000Y-66684000I-2180000J0D01*
G01*
X101859000Y-66684000D02*
G75*
G03X101859000Y-66684000I-2180000J0D01*
G01*
X106859000Y-66684000D02*
G75*
G03X106859000Y-66684000I-2180000J0D01*
G01*
X111859000Y-66684000D02*
G75*
G03X111859000Y-66684000I-2180000J0D01*
G01*
X116859000Y-66684000D02*
G75*
G03X116859000Y-66684000I-2180000J0D01*
G01*
X121859000Y-66684000D02*
G75*
G03X121859000Y-66684000I-2180000J0D01*
G01*
X126859000Y-66684000D02*
G75*
G03X126859000Y-66684000I-2180000J0D01*
G01*
X131859000Y-66684000D02*
G75*
G03X131859000Y-66684000I-2180000J0D01*
G01*
X92119000Y-62084000D02*
X132239000Y-62084000D01*
X92119000Y-63184000D02*
X132239000Y-63184000D01*
X92119000Y-72184000D02*
X132239000Y-72184000D01*
X92119000Y-61684000D02*
X132239000Y-61684000D01*
X92119000Y-72184000D02*
X92119000Y-61684000D01*
X132239000Y-72184000D02*
X132239000Y-61684000D01*
X91879000Y-62024000D02*
X91879000Y-61384000D01*
X91879000Y-61384000D02*
X92279000Y-61384000D01*
%TO.C,C20*%
X101349000Y-77984000D02*
G75*
G03X101349000Y-77984000I-4120000J0D01*
G01*
X97229000Y-73904000D02*
X97229000Y-82064000D01*
X97189000Y-73904000D02*
X97189000Y-82064000D01*
X97149000Y-73904000D02*
X97149000Y-82064000D01*
X97109000Y-73905000D02*
X97109000Y-82063000D01*
X97069000Y-73907000D02*
X97069000Y-82061000D01*
X97029000Y-73908000D02*
X97029000Y-82060000D01*
X96989000Y-73910000D02*
X96989000Y-82058000D01*
X96949000Y-73913000D02*
X96949000Y-82055000D01*
X96909000Y-73916000D02*
X96909000Y-82052000D01*
X96869000Y-73919000D02*
X96869000Y-82049000D01*
X96829000Y-73923000D02*
X96829000Y-82045000D01*
X96789000Y-73927000D02*
X96789000Y-82041000D01*
X96749000Y-73932000D02*
X96749000Y-82036000D01*
X96709000Y-73936000D02*
X96709000Y-82032000D01*
X96669000Y-73942000D02*
X96669000Y-82026000D01*
X96629000Y-73947000D02*
X96629000Y-82021000D01*
X96589000Y-73954000D02*
X96589000Y-82014000D01*
X96549000Y-73960000D02*
X96549000Y-82008000D01*
X96508000Y-73967000D02*
X96508000Y-76944000D01*
X96508000Y-79024000D02*
X96508000Y-82001000D01*
X96468000Y-73974000D02*
X96468000Y-76944000D01*
X96468000Y-79024000D02*
X96468000Y-81994000D01*
X96428000Y-73982000D02*
X96428000Y-76944000D01*
X96428000Y-79024000D02*
X96428000Y-81986000D01*
X96388000Y-73990000D02*
X96388000Y-76944000D01*
X96388000Y-79024000D02*
X96388000Y-81978000D01*
X96348000Y-73999000D02*
X96348000Y-76944000D01*
X96348000Y-79024000D02*
X96348000Y-81969000D01*
X96308000Y-74008000D02*
X96308000Y-76944000D01*
X96308000Y-79024000D02*
X96308000Y-81960000D01*
X96268000Y-74017000D02*
X96268000Y-76944000D01*
X96268000Y-79024000D02*
X96268000Y-81951000D01*
X96228000Y-74027000D02*
X96228000Y-76944000D01*
X96228000Y-79024000D02*
X96228000Y-81941000D01*
X96188000Y-74037000D02*
X96188000Y-76944000D01*
X96188000Y-79024000D02*
X96188000Y-81931000D01*
X96148000Y-74048000D02*
X96148000Y-76944000D01*
X96148000Y-79024000D02*
X96148000Y-81920000D01*
X96108000Y-74059000D02*
X96108000Y-76944000D01*
X96108000Y-79024000D02*
X96108000Y-81909000D01*
X96068000Y-74070000D02*
X96068000Y-76944000D01*
X96068000Y-79024000D02*
X96068000Y-81898000D01*
X96028000Y-74082000D02*
X96028000Y-76944000D01*
X96028000Y-79024000D02*
X96028000Y-81886000D01*
X95988000Y-74095000D02*
X95988000Y-76944000D01*
X95988000Y-79024000D02*
X95988000Y-81873000D01*
X95948000Y-74107000D02*
X95948000Y-76944000D01*
X95948000Y-79024000D02*
X95948000Y-81861000D01*
X95908000Y-74121000D02*
X95908000Y-76944000D01*
X95908000Y-79024000D02*
X95908000Y-81847000D01*
X95868000Y-74134000D02*
X95868000Y-76944000D01*
X95868000Y-79024000D02*
X95868000Y-81834000D01*
X95828000Y-74149000D02*
X95828000Y-76944000D01*
X95828000Y-79024000D02*
X95828000Y-81819000D01*
X95788000Y-74163000D02*
X95788000Y-76944000D01*
X95788000Y-79024000D02*
X95788000Y-81805000D01*
X95748000Y-74179000D02*
X95748000Y-76944000D01*
X95748000Y-79024000D02*
X95748000Y-81789000D01*
X95708000Y-74194000D02*
X95708000Y-76944000D01*
X95708000Y-79024000D02*
X95708000Y-81774000D01*
X95668000Y-74210000D02*
X95668000Y-76944000D01*
X95668000Y-79024000D02*
X95668000Y-81758000D01*
X95628000Y-74227000D02*
X95628000Y-76944000D01*
X95628000Y-79024000D02*
X95628000Y-81741000D01*
X95588000Y-74244000D02*
X95588000Y-76944000D01*
X95588000Y-79024000D02*
X95588000Y-81724000D01*
X95548000Y-74262000D02*
X95548000Y-76944000D01*
X95548000Y-79024000D02*
X95548000Y-81706000D01*
X95508000Y-74280000D02*
X95508000Y-76944000D01*
X95508000Y-79024000D02*
X95508000Y-81688000D01*
X95468000Y-74298000D02*
X95468000Y-76944000D01*
X95468000Y-79024000D02*
X95468000Y-81670000D01*
X95428000Y-74318000D02*
X95428000Y-76944000D01*
X95428000Y-79024000D02*
X95428000Y-81650000D01*
X95388000Y-74337000D02*
X95388000Y-76944000D01*
X95388000Y-79024000D02*
X95388000Y-81631000D01*
X95348000Y-74357000D02*
X95348000Y-76944000D01*
X95348000Y-79024000D02*
X95348000Y-81611000D01*
X95308000Y-74378000D02*
X95308000Y-76944000D01*
X95308000Y-79024000D02*
X95308000Y-81590000D01*
X95268000Y-74400000D02*
X95268000Y-76944000D01*
X95268000Y-79024000D02*
X95268000Y-81568000D01*
X95228000Y-74422000D02*
X95228000Y-76944000D01*
X95228000Y-79024000D02*
X95228000Y-81546000D01*
X95188000Y-74444000D02*
X95188000Y-76944000D01*
X95188000Y-79024000D02*
X95188000Y-81524000D01*
X95148000Y-74467000D02*
X95148000Y-76944000D01*
X95148000Y-79024000D02*
X95148000Y-81501000D01*
X95108000Y-74491000D02*
X95108000Y-76944000D01*
X95108000Y-79024000D02*
X95108000Y-81477000D01*
X95068000Y-74515000D02*
X95068000Y-76944000D01*
X95068000Y-79024000D02*
X95068000Y-81453000D01*
X95028000Y-74540000D02*
X95028000Y-76944000D01*
X95028000Y-79024000D02*
X95028000Y-81428000D01*
X94988000Y-74566000D02*
X94988000Y-76944000D01*
X94988000Y-79024000D02*
X94988000Y-81402000D01*
X94948000Y-74592000D02*
X94948000Y-76944000D01*
X94948000Y-79024000D02*
X94948000Y-81376000D01*
X94908000Y-74619000D02*
X94908000Y-76944000D01*
X94908000Y-79024000D02*
X94908000Y-81349000D01*
X94868000Y-74646000D02*
X94868000Y-76944000D01*
X94868000Y-79024000D02*
X94868000Y-81322000D01*
X94828000Y-74675000D02*
X94828000Y-76944000D01*
X94828000Y-79024000D02*
X94828000Y-81293000D01*
X94788000Y-74704000D02*
X94788000Y-76944000D01*
X94788000Y-79024000D02*
X94788000Y-81264000D01*
X94748000Y-74734000D02*
X94748000Y-76944000D01*
X94748000Y-79024000D02*
X94748000Y-81234000D01*
X94708000Y-74764000D02*
X94708000Y-76944000D01*
X94708000Y-79024000D02*
X94708000Y-81204000D01*
X94668000Y-74795000D02*
X94668000Y-76944000D01*
X94668000Y-79024000D02*
X94668000Y-81173000D01*
X94628000Y-74828000D02*
X94628000Y-76944000D01*
X94628000Y-79024000D02*
X94628000Y-81140000D01*
X94588000Y-74860000D02*
X94588000Y-76944000D01*
X94588000Y-79024000D02*
X94588000Y-81108000D01*
X94548000Y-74894000D02*
X94548000Y-76944000D01*
X94548000Y-79024000D02*
X94548000Y-81074000D01*
X94508000Y-74929000D02*
X94508000Y-76944000D01*
X94508000Y-79024000D02*
X94508000Y-81039000D01*
X94468000Y-74965000D02*
X94468000Y-76944000D01*
X94468000Y-79024000D02*
X94468000Y-81003000D01*
X94428000Y-75001000D02*
X94428000Y-80967000D01*
X94388000Y-75039000D02*
X94388000Y-80929000D01*
X94348000Y-75077000D02*
X94348000Y-80891000D01*
X94308000Y-75117000D02*
X94308000Y-80851000D01*
X94268000Y-75158000D02*
X94268000Y-80810000D01*
X94228000Y-75200000D02*
X94228000Y-80768000D01*
X94188000Y-75243000D02*
X94188000Y-80725000D01*
X94148000Y-75287000D02*
X94148000Y-80681000D01*
X94108000Y-75333000D02*
X94108000Y-80635000D01*
X94068000Y-75380000D02*
X94068000Y-80588000D01*
X94028000Y-75428000D02*
X94028000Y-80540000D01*
X93988000Y-75479000D02*
X93988000Y-80489000D01*
X93948000Y-75530000D02*
X93948000Y-80438000D01*
X93908000Y-75584000D02*
X93908000Y-80384000D01*
X93868000Y-75639000D02*
X93868000Y-80329000D01*
X93828000Y-75697000D02*
X93828000Y-80271000D01*
X93788000Y-75756000D02*
X93788000Y-80212000D01*
X93748000Y-75818000D02*
X93748000Y-80150000D01*
X93708000Y-75882000D02*
X93708000Y-80086000D01*
X93668000Y-75950000D02*
X93668000Y-80018000D01*
X93628000Y-76020000D02*
X93628000Y-79948000D01*
X93588000Y-76094000D02*
X93588000Y-79874000D01*
X93548000Y-76171000D02*
X93548000Y-79797000D01*
X93508000Y-76253000D02*
X93508000Y-79715000D01*
X93468000Y-76339000D02*
X93468000Y-79629000D01*
X93428000Y-76432000D02*
X93428000Y-79536000D01*
X93388000Y-76531000D02*
X93388000Y-79437000D01*
X93348000Y-76638000D02*
X93348000Y-79330000D01*
X93308000Y-76755000D02*
X93308000Y-79213000D01*
X93268000Y-76886000D02*
X93268000Y-79082000D01*
X93228000Y-77036000D02*
X93228000Y-78932000D01*
X93188000Y-77216000D02*
X93188000Y-78752000D01*
X93148000Y-77451000D02*
X93148000Y-78517000D01*
X101638698Y-75669000D02*
X100838698Y-75669000D01*
X101238698Y-75269000D02*
X101238698Y-76069000D01*
%TO.C,J1*%
X181508000Y-74279000D02*
X181508000Y-63279000D01*
X181508000Y-74279000D02*
X149508000Y-74279000D01*
X149508000Y-74279000D02*
X149508000Y-61279000D01*
X179508000Y-61279000D02*
X149508000Y-61279000D01*
X179508000Y-63279000D02*
X179508000Y-61279000D01*
X181508000Y-63279000D02*
X179508000Y-63279000D01*
X181508000Y-61279000D02*
X180448000Y-61279000D01*
X181508000Y-62339000D02*
X181508000Y-61279000D01*
%TO.C,J3*%
X101998000Y-110720000D02*
X101998000Y-111020000D01*
X101998000Y-111020000D02*
X101498000Y-111020000D01*
X102873000Y-110430000D02*
X101708000Y-110430000D01*
X101708000Y-110430000D02*
X101708000Y-110730000D01*
X101708000Y-110730000D02*
X100638000Y-110730000D01*
X100638000Y-110730000D02*
X100638000Y-105010000D01*
X100638000Y-105010000D02*
X102873000Y-105010000D01*
X102873000Y-110430000D02*
X104038000Y-110430000D01*
X104038000Y-110430000D02*
X104038000Y-110730000D01*
X104038000Y-110730000D02*
X105108000Y-110730000D01*
X105108000Y-110730000D02*
X105108000Y-105010000D01*
X105108000Y-105010000D02*
X102873000Y-105010000D01*
%TD*%
M02*
