M48
; DRILL file {KiCad (5.1.5)-3} date 31.05.2022 11:04:32
; FORMAT={-:-/ absolute / metric / decimal}
; #@! TF.CreationDate,2022-05-31T11:04:32-04:00
; #@! TF.GenerationSoftware,Kicad,Pcbnew,(5.1.5)-3
; #@! TF.FileFunction,Plated,1,4,PTH
FMAT,2
METRIC
T1C0.305
T2C0.500
T3C0.800
T4C1.000
T5C1.300
%
G90
G05
T1
X90.945Y-100.147
X90.945Y-109.57
X90.945Y-112.745
X90.945Y-116.174
X90.945Y-118.206
X90.945Y-121.635
X91.961Y-114.396
X93.485Y-122.016
X93.942Y-115.971
X95.238Y-116.606
X101.362Y-117.104
X102.184Y-124.492
X102.756Y-125.318
X103.879Y-80.784
X104.129Y-78.009
X105.359Y-121.127
X105.486Y-111.919
X106.439Y-125.331
X107.074Y-124.492
X107.729Y-98.234
X107.772Y-111.919
X108.079Y-73.184
X108.991Y-112.147
X109.829Y-102.884
X111.13Y-111.072
X111.229Y-102.884
X111.407Y-115.505
X113.129Y-102.884
X113.693Y-115.505
X114.241Y-110.552
X114.529Y-102.884
X116.229Y-101.434
X116.527Y-110.552
X116.789Y-115.008
X118.104Y-95.534
X118.104Y-96.934
X118.113Y-116.799
X119.054Y-98.134
X120.454Y-98.134
X121.454Y-95.534
X121.454Y-96.934
X122.179Y-73.184
X123.329Y-97.484
X123.329Y-99.934
X128.829Y-97.484
X131.179Y-94.784
X138.744Y-100.324
X139.826Y-101.695
X140.479Y-94.984
X140.579Y-103.784
X140.579Y-107.184
X140.579Y-107.834
X140.579Y-109.934
X140.579Y-110.584
X140.588Y-105.696
X141.479Y-102.384
X143.579Y-100.984
X144.479Y-93.084
X146.179Y-99.184
X146.313Y-94.553
X146.313Y-95.775
X146.313Y-96.975
X146.313Y-100.975
X146.313Y-102.975
X146.313Y-106.175
X146.992Y-118.572
X147.879Y-104.984
X148.459Y-110.408
X148.591Y-118.572
X149.079Y-109.484
X149.096Y-111.027
X149.379Y-100.584
X149.379Y-102.584
X149.379Y-104.584
X149.379Y-106.184
X150.191Y-118.572
X150.979Y-94.584
X150.979Y-95.778
X150.979Y-96.984
X150.979Y-98.584
X150.979Y-102.184
X150.979Y-107.384
X151.039Y-104.184
X151.879Y-103.484
X151.879Y-107.684
X152.079Y-100.584
X153.679Y-108.634
X153.679Y-109.234
X153.679Y-110.584
X153.679Y-111.174
X153.679Y-111.984
X153.679Y-112.584
X153.679Y-113.984
X153.679Y-114.584
X153.879Y-93.984
X153.879Y-95.184
X154.579Y-94.584
X155.544Y-90.184
X155.545Y-92.584
X156.345Y-90.184
X156.345Y-92.584
X157.6Y-77.512
X157.6Y-78.325
X157.625Y-83.85
X157.645Y-86.502
X157.645Y-88.202
X157.645Y-90.475
X158.279Y-118.306
X158.625Y-85.125
X158.625Y-86.125
X158.625Y-88.575
X158.64Y-89.814
X158.8Y-74.0
X158.8Y-78.325
X160.0Y-74.0
X160.0Y-78.325
X161.2Y-74.0
X161.2Y-78.325
X161.45Y-84.2
X162.4Y-74.0
X162.4Y-78.325
X162.479Y-89.784
X163.079Y-91.684
X163.7Y-93.284
X163.875Y-78.325
X163.95Y-90.4
X165.075Y-78.325
X165.579Y-92.084
X166.275Y-78.325
X166.55Y-80.9
X166.779Y-109.806
X166.779Y-126.806
X167.179Y-91.484
X167.475Y-78.325
X168.7Y-78.325
X169.7Y-78.325
X170.45Y-85.8
X170.45Y-87.8
X171.479Y-91.984
X171.479Y-92.984
X171.6Y-82.05
X171.6Y-88.6
X172.6Y-88.6
X172.875Y-81.025
X173.2Y-84.625
X173.2Y-85.825
X173.2Y-87.025
X173.675Y-83.375
X175.279Y-118.306
X180.179Y-95.784
X180.179Y-96.984
X180.179Y-98.184
X180.179Y-99.384
X180.179Y-100.584
X180.179Y-101.784
X180.179Y-105.384
X180.179Y-106.584
X180.179Y-107.784
X180.179Y-108.984
X180.179Y-110.184
X180.179Y-111.384
X180.179Y-112.584
X180.179Y-113.784
X184.6Y-74.623
X184.879Y-95.784
X184.879Y-96.984
X184.879Y-98.184
X184.879Y-99.384
X184.879Y-100.584
X184.879Y-101.784
X184.879Y-102.984
X184.879Y-104.184
X184.879Y-105.384
X184.879Y-106.584
X184.879Y-107.784
X184.879Y-108.984
X184.879Y-110.184
X184.879Y-111.384
X184.879Y-112.584
X184.879Y-113.784
X185.153Y-93.038
X185.675Y-72.65
X185.675Y-74.15
X185.675Y-75.884
X185.814Y-88.263
X186.479Y-95.484
X186.479Y-96.484
X186.703Y-120.007
X186.703Y-122.293
X187.779Y-98.484
X188.353Y-94.038
X189.653Y-95.422
X190.64Y-109.062
X190.64Y-107.792
X190.64Y-111.602
X191.179Y-98.484
X191.953Y-97.538
X192.178Y-99.717
X192.187Y-101.0
X192.187Y-102.95
X192.988Y-96.489
X193.521Y-94.825
X193.866Y-111.094
X193.953Y-96.489
X195.632Y-96.489
X195.829Y-94.834
X196.597Y-96.489
X198.453Y-94.838
X199.53Y-107.767
X199.53Y-121.762
X199.799Y-96.818
X200.546Y-110.332
X200.659Y-94.844
X200.937Y-97.75
X201.689Y-111.399
X201.689Y-121.762
X201.693Y-106.598
X201.943Y-97.744
X202.469Y-106.971
X202.578Y-72.676
X202.653Y-85.838
X203.387Y-104.72
X203.387Y-108.53
X203.387Y-112.33
X203.387Y-116.15
X203.667Y-97.402
X204.953Y-92.938
X205.753Y-81.738
X206.101Y-104.726
X206.101Y-108.536
X206.101Y-116.156
X206.105Y-112.338
X207.277Y-91.79
X208.928Y-92.044
X209.979Y-73.484
X210.198Y-91.79
X212.23Y-93.822
X163.845Y-83.502
X163.845Y-84.902
X163.845Y-86.302
X163.845Y-87.702
X165.245Y-83.502
X165.245Y-84.902
X165.245Y-86.302
X165.245Y-87.702
X166.645Y-83.502
X166.645Y-84.902
X166.645Y-86.302
X166.645Y-87.702
X168.045Y-83.502
X168.045Y-84.902
X168.045Y-86.302
X168.045Y-87.702
X204.337Y-113.85
X204.337Y-114.65
X204.337Y-115.45
X205.137Y-113.85
X205.137Y-114.65
X205.137Y-115.45
X204.337Y-102.42
X204.337Y-103.22
X204.337Y-104.02
X205.137Y-102.42
X205.137Y-103.22
X205.137Y-104.02
X204.337Y-106.23
X204.337Y-107.03
X204.337Y-107.83
X205.137Y-106.23
X205.137Y-107.03
X205.137Y-107.83
X204.337Y-110.04
X204.337Y-110.84
X204.337Y-111.64
X205.137Y-110.04
X205.137Y-110.84
X205.137Y-111.64
T2
X102.248Y-109.57
X103.498Y-109.57
X113.972Y-127.032
X115.222Y-127.032
X116.472Y-127.032
T3
X95.479Y-77.984
X98.979Y-77.984
T4
X204.779Y-75.084
X207.319Y-75.084
X204.779Y-79.038
X207.319Y-79.038
X210.96Y-85.44
X210.96Y-87.98
X210.96Y-90.52
X210.96Y-93.06
X210.96Y-95.6
X210.96Y-98.14
X210.96Y-100.68
X210.96Y-103.22
X210.96Y-105.76
X210.96Y-108.3
X210.96Y-110.84
X210.96Y-113.38
X210.96Y-115.92
X210.96Y-118.46
X210.96Y-121.0
X213.5Y-85.44
X213.5Y-87.98
X213.5Y-90.52
X213.5Y-93.06
X213.5Y-95.6
X213.5Y-98.14
X213.5Y-100.68
X213.5Y-103.22
X213.5Y-105.76
X213.5Y-108.3
X213.5Y-110.84
X213.5Y-113.38
X213.5Y-115.92
X213.5Y-118.46
X213.5Y-121.0
X86.5Y-103.22
X86.5Y-105.76
X86.5Y-108.3
X86.5Y-110.84
X86.5Y-113.38
X86.5Y-115.92
X86.5Y-118.46
X86.5Y-121.0
X89.04Y-103.22
X89.04Y-105.76
X89.04Y-108.3
X89.04Y-110.84
X89.04Y-113.38
X89.04Y-115.92
X89.04Y-118.46
X89.04Y-121.0
X94.691Y-125.127
X97.231Y-125.127
X99.771Y-125.127
X154.508Y-67.279
X154.508Y-69.479
X156.508Y-67.279
X156.508Y-69.479
X158.508Y-67.279
X158.508Y-69.479
X160.508Y-67.279
X160.508Y-69.479
X162.508Y-69.479
X164.508Y-69.479
X166.508Y-69.479
X168.508Y-69.479
X170.508Y-67.279
X170.508Y-69.479
X172.508Y-67.279
X172.508Y-69.479
X174.508Y-67.279
X174.508Y-69.479
X176.508Y-67.279
X176.508Y-69.479
T5
X94.679Y-66.684
X99.679Y-66.684
X104.679Y-66.684
X109.679Y-66.684
X114.679Y-66.684
X119.679Y-66.684
X124.679Y-66.684
X129.679Y-66.684
T0
M30
